<?xml version="1.0" encoding="UTF-8" standalone="no"?>
<!DOCTYPE svg PUBLIC "-//W3C//DTD SVG 1.1//EN"
 "http://www.w3.org/Graphics/SVG/1.1/DTD/svg11.dtd">
<!-- Generated by graphviz version 2.40.1 (20161225.0304)
 -->
<!-- Title: %3 Pages: 1 -->
<svg width="606pt" height="580pt"
 viewBox="0.00 0.00 606.00 580.00" xmlns="http://www.w3.org/2000/svg" xmlns:xlink="http://www.w3.org/1999/xlink">
<g id="graph0" class="graph" transform="scale(1 1) rotate(0) translate(4 576)">
<title>%3</title>
<polygon fill="#ffffff" stroke="transparent" points="-4,4 -4,-576 602,-576 602,4 -4,4"/>
<g id="clust3" class="cluster">
<title>cluster_k800</title>
<polygon fill="none" stroke="#000000" stroke-dasharray="1,5" points="8,-352 8,-508 395,-508 395,-352 8,-352"/>
<text text-anchor="start" x="110" y="-362" font-family="Helvetica,sans-Serif" font-size="20.00" fill="#000000">IPBus Infrastructure</text>
</g>
<g id="clust5" class="cluster">
<title>cluster_readout_board</title>
<polygon fill="none" stroke="#000000" stroke-dasharray="1,5" points="84,-8 84,-278 590,-278 590,-8 84,-8"/>
<text text-anchor="start" x="268" y="-18" font-family="Helvetica,sans-Serif" font-size="20.00" fill="#000000">Readout Board</text>
</g>
<g id="clust6" class="cluster">
<title>cluster_etroc</title>
<polygon fill="none" stroke="#000000" stroke-dasharray="1,5" points="92,-46 92,-130 582,-130 582,-46 92,-46"/>
<text text-anchor="start" x="300.5" y="-56" font-family="Helvetica,sans-Serif" font-size="20.00" fill="#000000">ETROC</text>
</g>
<!-- PCIE -->
<g id="node1" class="node">
<title>PCIE</title>
<polygon fill="#add8e6" stroke="#add8e6" points="221,-572 171,-572 171,-536 221,-536 221,-572"/>
<text text-anchor="middle" x="196" y="-550.3" font-family="Helvetica,sans-Serif" font-size="14.00" fill="#000000">PCIE</text>
</g>
<!-- K800 Infra -->
<g id="node2" class="node">
<title>K800 Infra</title>
<polygon fill="#add8e6" stroke="#add8e6" points="237.5,-500 154.5,-500 154.5,-464 237.5,-464 237.5,-500"/>
<text text-anchor="middle" x="196" y="-478.3" font-family="Helvetica,sans-Serif" font-size="14.00" fill="#000000">K800 Infra</text>
</g>
<!-- PCIE&#45;&gt;K800 Infra -->
<g id="edge1" class="edge">
<title>PCIE&#45;&gt;K800 Infra</title>
<path fill="none" stroke="#000000" d="M196,-535.8314C196,-528.131 196,-518.9743 196,-510.4166"/>
<polygon fill="#000000" stroke="#000000" points="199.5001,-510.4132 196,-500.4133 192.5001,-510.4133 199.5001,-510.4132"/>
</g>
<!-- Clock\nGeneration -->
<g id="node7" class="node">
<title>Clock\nGeneration</title>
<polygon fill="#add8e6" stroke="#add8e6" points="104.5,-428 15.5,-428 15.5,-390 104.5,-390 104.5,-428"/>
<text text-anchor="middle" x="60" y="-412.8" font-family="Helvetica,sans-Serif" font-size="14.00" fill="#000000">Clock</text>
<text text-anchor="middle" x="60" y="-397.8" font-family="Helvetica,sans-Serif" font-size="14.00" fill="#000000">Generation</text>
</g>
<!-- K800 Infra&#45;&gt;Clock\nGeneration -->
<g id="edge4" class="edge">
<title>K800 Infra&#45;&gt;Clock\nGeneration</title>
<path fill="none" stroke="#000000" d="M162.382,-463.9551C144.9418,-454.5938 123.4069,-443.0346 104.5942,-432.9366"/>
<polygon fill="#000000" stroke="#000000" points="106.0737,-429.7585 95.6075,-428.1128 102.7631,-435.9261 106.0737,-429.7585"/>
</g>
<!-- XDMA -->
<g id="node8" class="node">
<title>XDMA</title>
<polygon fill="#add8e6" stroke="#add8e6" points="181.5,-427 122.5,-427 122.5,-391 181.5,-391 181.5,-427"/>
<text text-anchor="middle" x="152" y="-405.3" font-family="Helvetica,sans-Serif" font-size="14.00" fill="#000000">XDMA</text>
</g>
<!-- K800 Infra&#45;&gt;XDMA -->
<g id="edge5" class="edge">
<title>K800 Infra&#45;&gt;XDMA</title>
<path fill="none" stroke="#000000" d="M185.1236,-463.9551C179.9937,-455.4441 173.7688,-445.1165 168.1064,-435.7219"/>
<polygon fill="#000000" stroke="#000000" points="171.0636,-433.8481 162.9038,-427.0904 165.0684,-437.4617 171.0636,-433.8481"/>
</g>
<!-- AXI IPBus\nTransport -->
<g id="node9" class="node">
<title>AXI IPBus\nTransport</title>
<polygon fill="#add8e6" stroke="#add8e6" points="282.5,-428 199.5,-428 199.5,-390 282.5,-390 282.5,-428"/>
<text text-anchor="middle" x="241" y="-412.8" font-family="Helvetica,sans-Serif" font-size="14.00" fill="#000000">AXI IPBus</text>
<text text-anchor="middle" x="241" y="-397.8" font-family="Helvetica,sans-Serif" font-size="14.00" fill="#000000">Transport</text>
</g>
<!-- K800 Infra&#45;&gt;AXI IPBus\nTransport -->
<g id="edge6" class="edge">
<title>K800 Infra&#45;&gt;AXI IPBus\nTransport</title>
<path fill="none" stroke="#000000" d="M207.1236,-463.9551C212.1598,-455.7852 218.2279,-445.9413 223.8287,-436.8557"/>
<polygon fill="#000000" stroke="#000000" points="226.95,-438.4621 229.2181,-428.1128 220.9912,-434.7888 226.95,-438.4621"/>
</g>
<!-- IPBus\nTransactor -->
<g id="node10" class="node">
<title>IPBus\nTransactor</title>
<polygon fill="#add8e6" stroke="#add8e6" points="387,-428 301,-428 301,-390 387,-390 387,-428"/>
<text text-anchor="middle" x="344" y="-412.8" font-family="Helvetica,sans-Serif" font-size="14.00" fill="#000000">IPBus</text>
<text text-anchor="middle" x="344" y="-397.8" font-family="Helvetica,sans-Serif" font-size="14.00" fill="#000000">Transactor</text>
</g>
<!-- K800 Infra&#45;&gt;IPBus\nTransactor -->
<g id="edge7" class="edge">
<title>K800 Infra&#45;&gt;IPBus\nTransactor</title>
<path fill="none" stroke="#000000" d="M232.5843,-463.9551C251.7359,-454.5087 275.4248,-442.8242 296.0286,-432.6616"/>
<polygon fill="#000000" stroke="#000000" points="297.8306,-435.6754 305.2507,-428.1128 294.734,-429.3975 297.8306,-435.6754"/>
</g>
<!-- SFP/Firefly -->
<g id="node3" class="node">
<title>SFP/Firefly</title>
<polygon fill="#add8e6" stroke="#add8e6" points="474.5,-572 385.5,-572 385.5,-536 474.5,-536 474.5,-572"/>
<text text-anchor="middle" x="430" y="-550.3" font-family="Helvetica,sans-Serif" font-size="14.00" fill="#000000">SFP/Firefly</text>
</g>
<!-- MGT\nWrapper -->
<g id="node5" class="node">
<title>MGT\nWrapper</title>
<polygon fill="#add8e6" stroke="#add8e6" points="466,-344 394,-344 394,-306 466,-306 466,-344"/>
<text text-anchor="middle" x="430" y="-328.8" font-family="Helvetica,sans-Serif" font-size="14.00" fill="#000000">MGT</text>
<text text-anchor="middle" x="430" y="-313.8" font-family="Helvetica,sans-Serif" font-size="14.00" fill="#000000">Wrapper</text>
</g>
<!-- SFP/Firefly&#45;&gt;MGT\nWrapper -->
<g id="edge8" class="edge">
<title>SFP/Firefly&#45;&gt;MGT\nWrapper</title>
<path fill="none" stroke="#000000" d="M430,-535.6471C430,-495.981 430,-401.985 430,-354.1105"/>
<polygon fill="#000000" stroke="#000000" points="433.5001,-354.083 430,-344.0831 426.5001,-354.0831 433.5001,-354.083"/>
</g>
<!-- Control -->
<g id="node4" class="node">
<title>Control</title>
<polygon fill="#add8e6" stroke="#add8e6" points="375.5,-343 312.5,-343 312.5,-307 375.5,-307 375.5,-343"/>
<text text-anchor="middle" x="344" y="-321.3" font-family="Helvetica,sans-Serif" font-size="14.00" fill="#000000">Control</text>
</g>
<!-- Control&#45;&gt;MGT\nWrapper -->
<g id="edge2" class="edge">
<title>Control&#45;&gt;MGT\nWrapper</title>
<path fill="none" stroke="#000000" d="M375.5781,-325C378.2443,-325 380.9105,-325 383.5767,-325"/>
<polygon fill="#000000" stroke="#000000" points="383.8605,-328.5001 393.8605,-325 383.8604,-321.5001 383.8605,-328.5001"/>
</g>
<!-- Readout\nBoard -->
<g id="node6" class="node">
<title>Readout\nBoard</title>
<polygon fill="#add8e6" stroke="#add8e6" points="423,-270 351,-270 351,-232 423,-232 423,-270"/>
<text text-anchor="middle" x="387" y="-254.8" font-family="Helvetica,sans-Serif" font-size="14.00" fill="#000000">Readout</text>
<text text-anchor="middle" x="387" y="-239.8" font-family="Helvetica,sans-Serif" font-size="14.00" fill="#000000">Board</text>
</g>
<!-- Control&#45;&gt;Readout\nBoard -->
<g id="edge3" class="edge">
<title>Control&#45;&gt;Readout\nBoard</title>
<path fill="none" stroke="#000000" d="M354.6292,-306.7079C359.4789,-298.3619 365.33,-288.2926 370.7162,-279.0232"/>
<polygon fill="#000000" stroke="#000000" points="373.8952,-280.5187 375.8932,-270.114 367.8428,-277.0017 373.8952,-280.5187"/>
</g>
<!-- MGT\nWrapper&#45;&gt;Readout\nBoard -->
<g id="edge9" class="edge">
<title>MGT\nWrapper&#45;&gt;Readout\nBoard</title>
<path fill="none" stroke="#000000" d="M418.9264,-305.9432C414.1487,-297.721 408.4646,-287.9391 403.2258,-278.9235"/>
<polygon fill="#000000" stroke="#000000" points="406.2359,-277.1372 398.1855,-270.2495 400.1835,-280.6542 406.2359,-277.1372"/>
</g>
<!-- DAQ\nLPGBT -->
<g id="node11" class="node">
<title>DAQ\nLPGBT</title>
<polygon fill="#add8e6" stroke="#add8e6" points="286.5,-196 221.5,-196 221.5,-158 286.5,-158 286.5,-196"/>
<text text-anchor="middle" x="254" y="-180.8" font-family="Helvetica,sans-Serif" font-size="14.00" fill="#000000">DAQ</text>
<text text-anchor="middle" x="254" y="-165.8" font-family="Helvetica,sans-Serif" font-size="14.00" fill="#000000">LPGBT</text>
</g>
<!-- Readout\nBoard&#45;&gt;DAQ\nLPGBT -->
<g id="edge10" class="edge">
<title>Readout\nBoard&#45;&gt;DAQ\nLPGBT</title>
<path fill="none" stroke="#000000" d="M352.7492,-231.9432C335.2874,-222.2276 313.9112,-210.3341 295.5184,-200.1005"/>
<polygon fill="#000000" stroke="#000000" points="297.1993,-197.0305 286.7591,-195.2269 293.7959,-203.1474 297.1993,-197.0305"/>
</g>
<!-- Trigger\nLPGBT -->
<g id="node12" class="node">
<title>Trigger\nLPGBT</title>
<polygon fill="#add8e6" stroke="#add8e6" points="419.5,-196 354.5,-196 354.5,-158 419.5,-158 419.5,-196"/>
<text text-anchor="middle" x="387" y="-180.8" font-family="Helvetica,sans-Serif" font-size="14.00" fill="#000000">Trigger</text>
<text text-anchor="middle" x="387" y="-165.8" font-family="Helvetica,sans-Serif" font-size="14.00" fill="#000000">LPGBT</text>
</g>
<!-- Readout\nBoard&#45;&gt;Trigger\nLPGBT -->
<g id="edge11" class="edge">
<title>Readout\nBoard&#45;&gt;Trigger\nLPGBT</title>
<path fill="none" stroke="#000000" d="M387,-231.9432C387,-224.1493 387,-214.9538 387,-206.3381"/>
<polygon fill="#000000" stroke="#000000" points="390.5001,-206.2494 387,-196.2495 383.5001,-206.2495 390.5001,-206.2494"/>
</g>
<!-- GBT&#45;SC\nController -->
<g id="node13" class="node">
<title>GBT&#45;SC\nController</title>
<polygon fill="#add8e6" stroke="#add8e6" points="539.5,-196 460.5,-196 460.5,-158 539.5,-158 539.5,-196"/>
<text text-anchor="middle" x="500" y="-180.8" font-family="Helvetica,sans-Serif" font-size="14.00" fill="#000000">GBT&#45;SC</text>
<text text-anchor="middle" x="500" y="-165.8" font-family="Helvetica,sans-Serif" font-size="14.00" fill="#000000">Controller</text>
</g>
<!-- Readout\nBoard&#45;&gt;GBT&#45;SC\nController -->
<g id="edge12" class="edge">
<title>Readout\nBoard&#45;&gt;GBT&#45;SC\nController</title>
<path fill="none" stroke="#000000" d="M416.1003,-231.9432C430.0944,-222.7789 447.0474,-211.677 462.0411,-201.8581"/>
<polygon fill="#000000" stroke="#000000" points="464.1573,-204.656 470.6056,-196.2495 460.3223,-198.7999 464.1573,-204.656"/>
</g>
<!-- IPBus\nTransactor&#45;&gt;Control -->
<g id="edge17" class="edge">
<title>IPBus\nTransactor&#45;&gt;Control</title>
<path fill="none" stroke="#000000" d="M344,-389.9391C344,-379.0819 344,-365.2747 344,-353.1857"/>
<polygon fill="#000000" stroke="#000000" points="347.5001,-353.1217 344,-343.1217 340.5001,-353.1218 347.5001,-353.1217"/>
</g>
<!-- ETROC TX -->
<g id="node15" class="node">
<title>ETROC TX</title>
<polygon fill="#add8e6" stroke="#add8e6" points="190,-121 100,-121 100,-85 190,-85 190,-121"/>
<text text-anchor="middle" x="145" y="-99.3" font-family="Helvetica,sans-Serif" font-size="14.00" fill="#000000">ETROC TX</text>
</g>
<!-- DAQ\nLPGBT&#45;&gt;ETROC TX -->
<g id="edge14" class="edge">
<title>DAQ\nLPGBT&#45;&gt;ETROC TX</title>
<path fill="none" stroke="#000000" d="M225.9298,-157.9432C212.0093,-148.4925 195.0534,-136.9812 180.265,-126.9414"/>
<polygon fill="#000000" stroke="#000000" points="182.0871,-123.948 171.8477,-121.2269 178.1553,-129.7395 182.0871,-123.948"/>
</g>
<!-- ETROC RX -->
<g id="node16" class="node">
<title>ETROC RX</title>
<polygon fill="#add8e6" stroke="#add8e6" points="300,-121 208,-121 208,-85 300,-85 300,-121"/>
<text text-anchor="middle" x="254" y="-99.3" font-family="Helvetica,sans-Serif" font-size="14.00" fill="#000000">ETROC RX</text>
</g>
<!-- DAQ\nLPGBT&#45;&gt;ETROC RX -->
<g id="edge15" class="edge">
<title>DAQ\nLPGBT&#45;&gt;ETROC RX</title>
<path fill="none" stroke="#000000" d="M254,-157.9432C254,-149.8174 254,-140.1682 254,-131.2408"/>
<polygon fill="#000000" stroke="#000000" points="257.5001,-131.2268 254,-121.2269 250.5001,-131.2269 257.5001,-131.2268"/>
</g>
<!-- ETROC Trigger Rx -->
<g id="node17" class="node">
<title>ETROC Trigger Rx</title>
<polygon fill="#add8e6" stroke="#add8e6" points="456,-121 318,-121 318,-85 456,-85 456,-121"/>
<text text-anchor="middle" x="387" y="-99.3" font-family="Helvetica,sans-Serif" font-size="14.00" fill="#000000">ETROC Trigger Rx</text>
</g>
<!-- Trigger\nLPGBT&#45;&gt;ETROC Trigger Rx -->
<g id="edge16" class="edge">
<title>Trigger\nLPGBT&#45;&gt;ETROC Trigger Rx</title>
<path fill="none" stroke="#000000" d="M387,-157.9432C387,-149.8174 387,-140.1682 387,-131.2408"/>
<polygon fill="#000000" stroke="#000000" points="390.5001,-131.2268 387,-121.2269 383.5001,-131.2269 390.5001,-131.2268"/>
</g>
<!-- ETROC\nSlow&#45;Control -->
<g id="node14" class="node">
<title>ETROC\nSlow&#45;Control</title>
<polygon fill="#add8e6" stroke="#add8e6" points="573.5,-122 474.5,-122 474.5,-84 573.5,-84 573.5,-122"/>
<text text-anchor="middle" x="524" y="-106.8" font-family="Helvetica,sans-Serif" font-size="14.00" fill="#000000">ETROC</text>
<text text-anchor="middle" x="524" y="-91.8" font-family="Helvetica,sans-Serif" font-size="14.00" fill="#000000">Slow&#45;Control</text>
</g>
<!-- GBT&#45;SC\nController&#45;&gt;ETROC\nSlow&#45;Control -->
<g id="edge13" class="edge">
<title>GBT&#45;SC\nController&#45;&gt;ETROC\nSlow&#45;Control</title>
<path fill="none" stroke="#000000" d="M506.1806,-157.9432C508.7639,-149.978 511.822,-140.549 514.6689,-131.7709"/>
<polygon fill="#000000" stroke="#000000" points="518.0011,-132.8415 517.7569,-122.2495 511.3425,-130.6819 518.0011,-132.8415"/>
</g>
</g>
</svg>
