<?xml version="1.0" encoding="UTF-8" standalone="no"?>
<!DOCTYPE svg PUBLIC "-//W3C//DTD SVG 1.1//EN"
 "http://www.w3.org/Graphics/SVG/1.1/DTD/svg11.dtd">
<!-- Generated by graphviz version 2.44.1 (0)
 -->
<!-- Pages: 1 -->
<svg width="584pt" height="580pt"
 viewBox="0.00 0.00 584.00 580.00" xmlns="http://www.w3.org/2000/svg" xmlns:xlink="http://www.w3.org/1999/xlink">
<g id="graph0" class="graph" transform="scale(1 1) rotate(0) translate(4 576)">
<polygon fill="white" stroke="transparent" points="-4,4 -4,-576 580,-576 580,4 -4,4"/>
<g id="clust3" class="cluster">
<title>cluster_k800</title>
<polygon fill="none" stroke="black" stroke-dasharray="1,5" points="8,-352 8,-508 378,-508 378,-352 8,-352"/>
<text text-anchor="start" x="105" y="-362" font-family="Helvetica,sans-Serif" font-size="20.00">IPBus Infrastructure</text>
</g>
<g id="clust5" class="cluster">
<title>cluster_readout_board</title>
<polygon fill="none" stroke="black" stroke-dasharray="1,5" points="83,-8 83,-278 568,-278 568,-8 83,-8"/>
<text text-anchor="start" x="257.5" y="-18" font-family="Helvetica,sans-Serif" font-size="20.00">Readout Board</text>
</g>
<g id="clust6" class="cluster">
<title>cluster_etroc</title>
<polygon fill="none" stroke="black" stroke-dasharray="1,5" points="91,-46 91,-130 560,-130 560,-46 91,-46"/>
<text text-anchor="start" x="290.5" y="-56" font-family="Helvetica,sans-Serif" font-size="20.00">ETROC</text>
</g>
<!-- PCIE -->
<g id="node1" class="node">
<title>PCIE</title>
<polygon fill="lightblue" stroke="lightblue" points="212,-572 164,-572 164,-536 212,-536 212,-572"/>
<text text-anchor="middle" x="188" y="-550.3" font-family="Helvetica,sans-Serif" font-size="14.00">PCIE</text>
</g>
<!-- K800 Infra -->
<g id="node2" class="node">
<title>K800 Infra</title>
<polygon fill="lightblue" stroke="lightblue" points="227.5,-500 148.5,-500 148.5,-464 227.5,-464 227.5,-500"/>
<text text-anchor="middle" x="188" y="-478.3" font-family="Helvetica,sans-Serif" font-size="14.00">K800 Infra</text>
</g>
<!-- PCIE&#45;&gt;K800 Infra -->
<g id="edge1" class="edge">
<title>PCIE&#45;&gt;K800 Infra</title>
<path fill="none" stroke="black" d="M188,-535.7C188,-527.98 188,-518.71 188,-510.11"/>
<polygon fill="black" stroke="black" points="191.5,-510.1 188,-500.1 184.5,-510.1 191.5,-510.1"/>
</g>
<!-- Clock\nGeneration -->
<g id="node7" class="node">
<title>Clock\nGeneration</title>
<polygon fill="lightblue" stroke="lightblue" points="100,-428 16,-428 16,-390 100,-390 100,-428"/>
<text text-anchor="middle" x="58" y="-412.8" font-family="Helvetica,sans-Serif" font-size="14.00">Clock</text>
<text text-anchor="middle" x="58" y="-397.8" font-family="Helvetica,sans-Serif" font-size="14.00">Generation</text>
</g>
<!-- K800 Infra&#45;&gt;Clock\nGeneration -->
<g id="edge4" class="edge">
<title>K800 Infra&#45;&gt;Clock\nGeneration</title>
<path fill="none" stroke="black" d="M156.86,-463.99C139.82,-454.69 118.47,-443.03 99.97,-432.92"/>
<polygon fill="black" stroke="black" points="101.61,-429.83 91.16,-428.11 98.26,-435.97 101.61,-429.83"/>
</g>
<!-- XDMA -->
<g id="node8" class="node">
<title>XDMA</title>
<polygon fill="lightblue" stroke="lightblue" points="174,-427 118,-427 118,-391 174,-391 174,-427"/>
<text text-anchor="middle" x="146" y="-405.3" font-family="Helvetica,sans-Serif" font-size="14.00">XDMA</text>
</g>
<!-- K800 Infra&#45;&gt;XDMA -->
<g id="edge5" class="edge">
<title>K800 Infra&#45;&gt;XDMA</title>
<path fill="none" stroke="black" d="M177.83,-463.81C172.88,-455.44 166.82,-445.2 161.32,-435.9"/>
<polygon fill="black" stroke="black" points="164.18,-433.85 156.07,-427.03 158.15,-437.42 164.18,-433.85"/>
</g>
<!-- AXI IPBus\nTransport -->
<g id="node9" class="node">
<title>AXI IPBus\nTransport</title>
<polygon fill="lightblue" stroke="lightblue" points="270,-428 192,-428 192,-390 270,-390 270,-428"/>
<text text-anchor="middle" x="231" y="-412.8" font-family="Helvetica,sans-Serif" font-size="14.00">AXI IPBus</text>
<text text-anchor="middle" x="231" y="-397.8" font-family="Helvetica,sans-Serif" font-size="14.00">Transport</text>
</g>
<!-- K800 Infra&#45;&gt;AXI IPBus\nTransport -->
<g id="edge6" class="edge">
<title>K800 Infra&#45;&gt;AXI IPBus\nTransport</title>
<path fill="none" stroke="black" d="M198.41,-463.81C203.33,-455.69 209.32,-445.8 214.81,-436.73"/>
<polygon fill="black" stroke="black" points="217.9,-438.39 220.09,-428.02 211.91,-434.76 217.9,-438.39"/>
</g>
<!-- IPBus\nTransactor -->
<g id="node10" class="node">
<title>IPBus\nTransactor</title>
<polygon fill="lightblue" stroke="lightblue" points="369.5,-428 288.5,-428 288.5,-390 369.5,-390 369.5,-428"/>
<text text-anchor="middle" x="329" y="-412.8" font-family="Helvetica,sans-Serif" font-size="14.00">IPBus</text>
<text text-anchor="middle" x="329" y="-397.8" font-family="Helvetica,sans-Serif" font-size="14.00">Transactor</text>
</g>
<!-- K800 Infra&#45;&gt;IPBus\nTransactor -->
<g id="edge7" class="edge">
<title>K800 Infra&#45;&gt;IPBus\nTransactor</title>
<path fill="none" stroke="black" d="M221.77,-463.99C240.42,-454.6 263.84,-442.81 284.02,-432.65"/>
<polygon fill="black" stroke="black" points="285.68,-435.73 293.04,-428.11 282.53,-429.48 285.68,-435.73"/>
</g>
<!-- SFP/Firefly -->
<g id="node3" class="node">
<title>SFP/Firefly</title>
<polygon fill="lightblue" stroke="lightblue" points="461.5,-572 378.5,-572 378.5,-536 461.5,-536 461.5,-572"/>
<text text-anchor="middle" x="420" y="-550.3" font-family="Helvetica,sans-Serif" font-size="14.00">SFP/Firefly</text>
</g>
<!-- MGT\nWrapper -->
<g id="node5" class="node">
<title>MGT\nWrapper</title>
<polygon fill="lightblue" stroke="lightblue" points="454,-344 386,-344 386,-306 454,-306 454,-344"/>
<text text-anchor="middle" x="420" y="-328.8" font-family="Helvetica,sans-Serif" font-size="14.00">MGT</text>
<text text-anchor="middle" x="420" y="-313.8" font-family="Helvetica,sans-Serif" font-size="14.00">Wrapper</text>
</g>
<!-- SFP/Firefly&#45;&gt;MGT\nWrapper -->
<g id="edge8" class="edge">
<title>SFP/Firefly&#45;&gt;MGT\nWrapper</title>
<path fill="none" stroke="black" d="M420,-535.94C420,-497.2 420,-402.26 420,-354.46"/>
<polygon fill="black" stroke="black" points="423.5,-354.2 420,-344.2 416.5,-354.2 423.5,-354.2"/>
</g>
<!-- IPBus\nFabric Sel -->
<g id="node4" class="node">
<title>IPBus\nFabric Sel</title>
<polygon fill="lightblue" stroke="lightblue" points="367.5,-344 290.5,-344 290.5,-306 367.5,-306 367.5,-344"/>
<text text-anchor="middle" x="329" y="-328.8" font-family="Helvetica,sans-Serif" font-size="14.00">IPBus</text>
<text text-anchor="middle" x="329" y="-313.8" font-family="Helvetica,sans-Serif" font-size="14.00">Fabric Sel</text>
</g>
<!-- IPBus\nFabric Sel&#45;&gt;MGT\nWrapper -->
<g id="edge2" class="edge">
<title>IPBus\nFabric Sel&#45;&gt;MGT\nWrapper</title>
<path fill="none" stroke="black" d="M367.75,-325C370.37,-325 372.99,-325 375.6,-325"/>
<polygon fill="black" stroke="black" points="375.71,-328.5 385.71,-325 375.71,-321.5 375.71,-328.5"/>
</g>
<!-- Readout\nBoard -->
<g id="node6" class="node">
<title>Readout\nBoard</title>
<polygon fill="lightblue" stroke="lightblue" points="408,-270 340,-270 340,-232 408,-232 408,-270"/>
<text text-anchor="middle" x="374" y="-254.8" font-family="Helvetica,sans-Serif" font-size="14.00">Readout</text>
<text text-anchor="middle" x="374" y="-239.8" font-family="Helvetica,sans-Serif" font-size="14.00">Board</text>
</g>
<!-- IPBus\nFabric Sel&#45;&gt;Readout\nBoard -->
<g id="edge3" class="edge">
<title>IPBus\nFabric Sel&#45;&gt;Readout\nBoard</title>
<path fill="none" stroke="black" d="M340.36,-305.83C345.43,-297.71 351.52,-287.96 357.12,-279.01"/>
<polygon fill="black" stroke="black" points="360.16,-280.75 362.49,-270.41 354.22,-277.04 360.16,-280.75"/>
</g>
<!-- MGT\nWrapper&#45;&gt;Readout\nBoard -->
<g id="edge9" class="edge">
<title>MGT\nWrapper&#45;&gt;Readout\nBoard</title>
<path fill="none" stroke="black" d="M408.39,-305.83C403.2,-297.71 396.98,-287.96 391.26,-279.01"/>
<polygon fill="black" stroke="black" points="394.1,-276.96 385.76,-270.41 388.2,-280.72 394.1,-276.96"/>
</g>
<!-- DAQ\nLPGBT -->
<g id="node11" class="node">
<title>DAQ\nLPGBT</title>
<polygon fill="lightblue" stroke="lightblue" points="278,-196 216,-196 216,-158 278,-158 278,-196"/>
<text text-anchor="middle" x="247" y="-180.8" font-family="Helvetica,sans-Serif" font-size="14.00">DAQ</text>
<text text-anchor="middle" x="247" y="-165.8" font-family="Helvetica,sans-Serif" font-size="14.00">LPGBT</text>
</g>
<!-- Readout\nBoard&#45;&gt;DAQ\nLPGBT -->
<g id="edge10" class="edge">
<title>Readout\nBoard&#45;&gt;DAQ\nLPGBT</title>
<path fill="none" stroke="black" d="M341.95,-231.83C325.31,-222.39 304.81,-210.77 287.12,-200.74"/>
<polygon fill="black" stroke="black" points="288.58,-197.55 278.16,-195.67 285.13,-203.64 288.58,-197.55"/>
</g>
<!-- Trigger\nLPGBT -->
<g id="node12" class="node">
<title>Trigger\nLPGBT</title>
<polygon fill="lightblue" stroke="lightblue" points="405,-196 343,-196 343,-158 405,-158 405,-196"/>
<text text-anchor="middle" x="374" y="-180.8" font-family="Helvetica,sans-Serif" font-size="14.00">Trigger</text>
<text text-anchor="middle" x="374" y="-165.8" font-family="Helvetica,sans-Serif" font-size="14.00">LPGBT</text>
</g>
<!-- Readout\nBoard&#45;&gt;Trigger\nLPGBT -->
<g id="edge11" class="edge">
<title>Readout\nBoard&#45;&gt;Trigger\nLPGBT</title>
<path fill="none" stroke="black" d="M374,-231.83C374,-224.13 374,-214.97 374,-206.42"/>
<polygon fill="black" stroke="black" points="377.5,-206.41 374,-196.41 370.5,-206.41 377.5,-206.41"/>
</g>
<!-- GBT&#45;SC\nController -->
<g id="node13" class="node">
<title>GBT&#45;SC\nController</title>
<polygon fill="lightblue" stroke="lightblue" points="520.5,-196 445.5,-196 445.5,-158 520.5,-158 520.5,-196"/>
<text text-anchor="middle" x="483" y="-180.8" font-family="Helvetica,sans-Serif" font-size="14.00">GBT&#45;SC</text>
<text text-anchor="middle" x="483" y="-165.8" font-family="Helvetica,sans-Serif" font-size="14.00">Controller</text>
</g>
<!-- Readout\nBoard&#45;&gt;GBT&#45;SC\nController -->
<g id="edge12" class="edge">
<title>Readout\nBoard&#45;&gt;GBT&#45;SC\nController</title>
<path fill="none" stroke="black" d="M401.51,-231.83C415.32,-222.71 432.23,-211.54 447.05,-201.74"/>
<polygon fill="black" stroke="black" points="449.09,-204.59 455.5,-196.16 445.23,-198.75 449.09,-204.59"/>
</g>
<!-- IPBus\nTransactor&#45;&gt;IPBus\nFabric Sel -->
<g id="edge17" class="edge">
<title>IPBus\nTransactor&#45;&gt;IPBus\nFabric Sel</title>
<path fill="none" stroke="black" d="M329,-389.8C329,-379.4 329,-366.12 329,-354.38"/>
<polygon fill="black" stroke="black" points="332.5,-354.15 329,-344.15 325.5,-354.15 332.5,-354.15"/>
</g>
<!-- ETROC TX -->
<g id="node15" class="node">
<title>ETROC TX</title>
<polygon fill="lightblue" stroke="lightblue" points="185,-121 99,-121 99,-85 185,-85 185,-121"/>
<text text-anchor="middle" x="142" y="-99.3" font-family="Helvetica,sans-Serif" font-size="14.00">ETROC TX</text>
</g>
<!-- DAQ\nLPGBT&#45;&gt;ETROC TX -->
<g id="edge14" class="edge">
<title>DAQ\nLPGBT&#45;&gt;ETROC TX</title>
<path fill="none" stroke="black" d="M220.5,-157.83C206.79,-148.43 189.91,-136.86 175.33,-126.85"/>
<polygon fill="black" stroke="black" points="177.27,-123.94 167.04,-121.17 173.31,-129.71 177.27,-123.94"/>
</g>
<!-- ETROC RX -->
<g id="node16" class="node">
<title>ETROC RX</title>
<polygon fill="lightblue" stroke="lightblue" points="290.5,-121 203.5,-121 203.5,-85 290.5,-85 290.5,-121"/>
<text text-anchor="middle" x="247" y="-99.3" font-family="Helvetica,sans-Serif" font-size="14.00">ETROC RX</text>
</g>
<!-- DAQ\nLPGBT&#45;&gt;ETROC RX -->
<g id="edge15" class="edge">
<title>DAQ\nLPGBT&#45;&gt;ETROC RX</title>
<path fill="none" stroke="black" d="M247,-157.83C247,-149.89 247,-140.41 247,-131.63"/>
<polygon fill="black" stroke="black" points="250.5,-131.42 247,-121.42 243.5,-131.42 250.5,-131.42"/>
</g>
<!-- ETROC Trigger Rx -->
<g id="node17" class="node">
<title>ETROC Trigger Rx</title>
<polygon fill="lightblue" stroke="lightblue" points="439.5,-121 308.5,-121 308.5,-85 439.5,-85 439.5,-121"/>
<text text-anchor="middle" x="374" y="-99.3" font-family="Helvetica,sans-Serif" font-size="14.00">ETROC Trigger Rx</text>
</g>
<!-- Trigger\nLPGBT&#45;&gt;ETROC Trigger Rx -->
<g id="edge16" class="edge">
<title>Trigger\nLPGBT&#45;&gt;ETROC Trigger Rx</title>
<path fill="none" stroke="black" d="M374,-157.83C374,-149.89 374,-140.41 374,-131.63"/>
<polygon fill="black" stroke="black" points="377.5,-131.42 374,-121.42 370.5,-131.42 377.5,-131.42"/>
</g>
<!-- ETROC\nSlow&#45;Control -->
<g id="node14" class="node">
<title>ETROC\nSlow&#45;Control</title>
<polygon fill="lightblue" stroke="lightblue" points="552,-122 458,-122 458,-84 552,-84 552,-122"/>
<text text-anchor="middle" x="505" y="-106.8" font-family="Helvetica,sans-Serif" font-size="14.00">ETROC</text>
<text text-anchor="middle" x="505" y="-91.8" font-family="Helvetica,sans-Serif" font-size="14.00">Slow&#45;Control</text>
</g>
<!-- GBT&#45;SC\nController&#45;&gt;ETROC\nSlow&#45;Control -->
<g id="edge13" class="edge">
<title>GBT&#45;SC\nController&#45;&gt;ETROC\nSlow&#45;Control</title>
<path fill="none" stroke="black" d="M488.55,-157.83C490.93,-150.05 493.76,-140.77 496.4,-132.13"/>
<polygon fill="black" stroke="black" points="499.8,-133 499.37,-122.41 493.1,-130.95 499.8,-133"/>
</g>
</g>
</svg>
